<svg xmlns="http://www.w3.org/2000/svg" viewBox="0 0 100 100" width="100" height="100" role="img" aria-label="The Loyal"><rect x="0" y="0" width="100" height="100" rx="24" fill="#111111"/><g transform="translate(20.06,70.30)" fill="#FAF7F0"><path d="M5.2431837158203125 -40.6H30.60061804199219Q31.19801025390625 -40.6 31.725805297851565 -40.79430212402344Q32.253600341796876 -40.988604248046876 32.639298217773444 -41.18290637207031Q33.024996093750005 -41.37720849609375 33.15259680175782 -41.37720849609375Q33.22799609375 -41.37720849609375 33.288895385742194 -41.28730920410156Q33.34979467773438 -41.19740991210938 33.41939538574219 -40.774014160156256L35.24059680175782 -29.63812744140625Q35.29859680175782 -29.435130981445315 35.26669750976563 -29.327830627441408Q35.23479821777344 -29.2205302734375 35.14779821777344 -29.185731689453128Q35.06079821777344 -29.16833239746094 34.97379998779297 -29.22343310546875Q34.8868017578125 -29.278533813476564 34.811402465820315 -29.417731689453127Q32.92064282226563 -33.97648071289063 31.35177185058594 -36.25875451660156Q29.78290087890625 -38.5410283203125 28.370614685058595 -39.30371911621094Q26.95832849121094 -40.06640991210938 25.58952282714844 -40.06640991210938H22.097776977539063V-1.5659929199218752Q22.097776977539063 -1.217992919921875 22.381973083496092 -1.0381943359375Q22.666169189453125 -0.858395751953125 23.22296423339844 -0.76559716796875L25.566208129882813 -0.40599291992187503Q25.91420104980469 -0.3537950439453125 25.91420104980469 -0.18559716796875Q25.91420104980469 0.0 25.635805297851565 0.0H10.440010620117189Q10.300812744140625 0.0 10.231213806152343 -0.0608992919921875Q10.161614868164063 -0.121798583984375 10.161614868164063 -0.18559716796875Q10.161614868164063 -0.3537950439453125 10.509607788085939 -0.40599291992187503L12.852851684570313 -0.76559716796875Q13.427046020507813 -0.858395751953125 13.70254248046875 -1.0381943359375Q13.978038940429688 -1.217992919921875 13.978038940429688 -1.5659929199218752V-40.06640991210938H10.486293090820313Q9.146480346679688 -40.06640991210938 7.754492736816406 -39.21092053222657Q6.362505126953125 -38.355431152343755 4.7762366333007815 -36.05865734863282Q3.1899681396484376 -33.76188354492188 1.2644134521484376 -29.417731689453127Q1.2006148681640625 -29.278533813476564 1.1078162841796875 -29.22343310546875Q1.0150177001953125 -29.16833239746094 0.9280177001953126 -29.185731689453128Q0.8410177001953125 -29.2205302734375 0.823618408203125 -29.327830627441408Q0.8062191162109376 -29.435130981445315 0.8352191162109376 -29.63812744140625L2.6564205322265626 -40.774014160156256Q2.7260212402343753 -41.19740991210938 2.7927208862304687 -41.28730920410156Q2.8594205322265625 -41.37720849609375 2.9232191162109378 -41.37720849609375Q3.0392191162109374 -41.37720849609375 3.36401416015625 -41.18290637207031Q3.6888092041015628 -40.988604248046876 4.178901062011719 -40.79430212402344Q4.668992919921875 -40.6 5.2431837158203125 -40.6Z"/><path d="M44.46420458984375 -40.19400708007813 42.12096069335938 -39.83440283203125Q41.564165649414065 -39.75320495605469 41.27996954345703 -39.56760601806641Q40.9957734375 -39.382007080078125 40.9957734375 -39.034007080078126V-1.73998583984375Q40.9957734375 -1.0961907958984376 41.36117272949218 -0.8264911499023437Q41.72657202148437 -0.55679150390625 42.42257202148438 -0.55679150390625H47.84Q49.23779858398437 -0.55679150390625 50.52538336181641 -1.1077844238281251Q51.81296813964844 -1.6587773437500002 53.10344335937501 -3.100058227539063Q54.393918579101566 -4.541339111328125 55.75689025878906 -7.2383037109375L58.59303857421875 -12.864247070312501Q58.66843786621094 -13.003444946289063 58.73803680419922 -13.06724530029297Q58.8076357421875 -13.131045654296877 58.8946357421875 -13.0962470703125Q59.016434326171876 -13.078847778320313 59.048333618164065 -12.968648132324219Q59.080232910156255 -12.858448486328125 59.02223291015625 -12.643851318359376L56.31944140625001 0.17401416015625001Q56.232441406250004 0.5684099121093751 56.18024176025391 0.6728092041015625Q56.12804211425781 0.7772084960937501 56.052642822265625 0.7772084960937501Q55.878639282226565 0.7772084960937501 55.49874176025391 0.5829063720703126Q55.118844238281255 0.38860424804687504 54.515644592285156 0.19430212402343752Q53.912444946289064 0.0 53.0366357421875 0.0H29.338007080078125Q29.198809204101565 0.0 29.129210266113283 -0.0608992919921875Q29.059611328125 -0.121798583984375 29.059611328125 -0.18559716796875Q29.059611328125 -0.3537950439453125 29.407604248046876 -0.40599291992187503L31.75084814453125 -0.76559716796875Q32.32504248046875 -0.858395751953125 32.600538940429686 -1.0381943359375Q32.87603540039063 -1.217992919921875 32.87603540039063 -1.5659929199218752V-39.034007080078126Q32.87603540039063 -39.382007080078125 32.600538940429686 -39.56760601806641Q32.32504248046875 -39.75320495605469 31.75084814453125 -39.83440283203125L29.407604248046876 -40.19400708007813Q29.059611328125 -40.24620495605469 29.059611328125 -40.41440283203125Q29.059611328125 -40.48980212402344 29.129210266113283 -40.54490106201172Q29.198809204101565 -40.6 29.338007080078125 -40.6H44.5338017578125Q44.67299963378906 -40.6 44.74259857177734 -40.54490106201172Q44.812197509765625 -40.48980212402344 44.812197509765625 -40.41440283203125Q44.812197509765625 -40.24620495605469 44.46420458984375 -40.19400708007813Z"/></g></svg>