<svg xmlns="http://www.w3.org/2000/svg" viewBox="0 0 135.9 122.3" width="136" height="122" role="img" aria-label="The Loyal">
<rect x="0" y="0" width="135.9" height="122.3" fill="#111111"/>
<g transform="translate(14.59,87.34)">
<g fill="#FAF7F0"><path d="M9.039971923828125 -70.0H52.75968627929688Q53.7896728515625 -70.0 54.69966430664063 -70.33500366210939Q55.609655761718756 -70.67000732421876 56.27465209960938 -71.00501098632813Q56.939648437500004 -71.3400146484375 57.15964965820313 -71.3400146484375Q57.289648437500006 -71.3400146484375 57.39464721679688 -71.18501586914063Q57.499645996093754 -71.03001708984375 57.61964721679688 -70.3000244140625L60.75964965820313 -51.1002197265625Q60.859649658203125 -50.75022583007813 60.80465087890625 -50.56522521972657Q60.74965209960938 -50.380224609375006 60.59965209960938 -50.320227050781256Q60.44965209960938 -50.29022827148438 60.29965515136719 -50.385229492187506Q60.149658203125 -50.48023071289063 60.01965942382813 -50.720227050781254Q56.75972900390625 -58.58013916015625 54.054779052734375 -62.51509399414063Q51.349829101562506 -66.450048828125 48.91485290527344 -67.76503295898438Q46.47987670898438 -69.08001708984375 44.119866943359376 -69.08001708984375H38.099615478515624V-2.6999877929687504Q38.099615478515624 -2.0999877929687503 38.58960876464844 -1.7899902343750003Q39.079602050781254 -1.47999267578125 40.03959350585938 -1.3199951171875002L44.07966918945313 -0.69998779296875Q44.679656982421875 -0.609991455078125 44.679656982421875 -0.3199951171875Q44.679656982421875 0.0 44.19966430664063 0.0H18.000018310546874Q17.76002197265625 0.0 17.64002380371094 -0.10499877929687501Q17.520025634765627 -0.20999755859375002 17.520025634765627 -0.3199951171875Q17.520025634765627 -0.609991455078125 18.120013427734374 -0.69998779296875L22.160089111328126 -1.3199951171875002Q23.150079345703126 -1.47999267578125 23.6250732421875 -1.7899902343750003Q24.100067138671875 -2.0999877929687503 24.100067138671875 -2.6999877929687504V-69.08001708984375H18.079815673828126Q15.769793701171876 -69.08001708984375 13.369815063476564 -67.60503540039062Q10.969836425781251 -66.1300537109375 8.234890747070313 -62.170098876953126Q5.499945068359375 -58.21014404296875 2.180023193359375 -50.720227050781254Q2.070025634765625 -50.48023071289063 1.910028076171875 -50.385229492187506Q1.750030517578125 -50.29022827148438 1.600030517578125 -50.320227050781256Q1.4500305175781252 -50.380224609375006 1.4200317382812502 -50.56522521972657Q1.3900329589843752 -50.75022583007813 1.440032958984375 -51.1002197265625L4.580035400390625 -70.3000244140625Q4.7000366210937505 -71.03001708984375 4.815036010742189 -71.18501586914063Q4.930035400390626 -71.3400146484375 5.0400329589843755 -71.3400146484375Q5.240032958984376 -71.3400146484375 5.8000244140625 -71.00501098632813Q6.360015869140625 -70.67000732421876 7.2050018310546875 -70.33500366210939Q8.04998779296875 -70.0 9.039971923828125 -70.0Z"/><path d="M80.1796630859375 -69.30001220703126 76.13958740234375 -68.6800048828125Q75.17959594726562 -68.54000854492188 74.68960266113282 -68.22001037597656Q74.19960937500001 -67.90001220703125 74.19960937500001 -67.30001220703126V-2.9999755859375004Q74.19960937500001 -1.889984130859375 74.82960815429689 -1.4249847412109375Q75.45960693359376 -0.9599853515625001 76.65960693359375 -0.9599853515625001H86.0Q88.40999755859374 -0.9599853515625001 90.62997131347656 -1.9099731445312502Q92.84994506835938 -2.8599609375000004 95.07490234375001 -5.344927978515625Q97.29985961914063 -7.82989501953125 99.64981079101562 -12.479833984375L104.5397216796875 -22.179736328125003Q104.66972045898439 -22.419732666015626 104.78971862792969 -22.52973327636719Q104.909716796875 -22.63973388671875 105.05971679687501 -22.579736328125Q105.26971435546875 -22.549737548828126 105.32471313476563 -22.359738159179688Q105.37971191406251 -22.16973876953125 105.2797119140625 -21.79974365234375L100.6197265625 0.3000244140625Q100.4697265625 0.98001708984375 100.37972717285157 1.160015869140625Q100.28972778320313 1.3400146484375002 100.15972900390625 1.3400146484375002Q99.85972290039064 1.3400146484375002 99.20472717285156 1.0050109863281251Q98.5497314453125 0.6700073242187501 97.50973205566407 0.33500366210937504Q96.46973266601563 0.0 94.959716796875 0.0H54.100012207031256Q53.860015869140625 0.0 53.74001770019531 -0.10499877929687501Q53.62001953125 -0.20999755859375002 53.62001953125 -0.3199951171875Q53.62001953125 -0.609991455078125 54.220007324218756 -0.69998779296875L58.260083007812504 -1.3199951171875002Q59.250073242187504 -1.47999267578125 59.725067138671875 -1.7899902343750003Q60.20006103515625 -2.0999877929687503 60.20006103515625 -2.6999877929687504V-67.30001220703126Q60.20006103515625 -67.90001220703125 59.725067138671875 -68.22001037597656Q59.250073242187504 -68.54000854492188 58.260083007812504 -68.6800048828125L54.220007324218756 -69.30001220703126Q53.62001953125 -69.39000854492188 53.62001953125 -69.6800048828125Q53.62001953125 -69.81000366210938 53.74001770019531 -69.90500183105469Q53.860015869140625 -70.0 54.100012207031256 -70.0H80.299658203125Q80.53965454101564 -70.0 80.65965270996094 -69.90500183105469Q80.77965087890625 -69.81000366210938 80.77965087890625 -69.6800048828125Q80.77965087890625 -69.39000854492188 80.1796630859375 -69.30001220703126Z"/></g>
<rect x="1.41" y="12.00" width="103.94" height="7.00" rx="1.5" fill="#00C48C"/>
</g></svg>