<svg xmlns="http://www.w3.org/2000/svg" viewBox="0 0 414.7 131.4" width="415" height="131" role="img" aria-label="The Loyal">
<rect x="0" y="0" width="414.7" height="131.4" fill="#FAF7F0"/>
<g transform="translate(14.46,90.86)">
<g fill="#111111"><path d="M8.925 -70.0H51.475Q52.45 -70.0 53.325 -70.35Q54.2 -70.7 54.85 -71.05000000000001Q55.5 -71.4 55.725 -71.4Q55.85 -71.4 55.95 -71.25Q56.050000000000004 -71.10000000000001 56.175000000000004 -70.4L59.325 -52.0Q59.425000000000004 -51.675000000000004 59.375 -51.487500000000004Q59.325 -51.300000000000004 59.175000000000004 -51.25Q59.025000000000006 -51.225 58.8875 -51.325Q58.75 -51.425000000000004 58.625 -51.650000000000006Q55.650000000000006 -59.150000000000006 53.150000000000006 -62.900000000000006Q50.650000000000006 -66.65 48.3125 -67.9Q45.975 -69.15 43.575 -69.15H36.525V-2.6500000000000004Q36.525 -2.0500000000000003 36.9875 -1.7500000000000002Q37.45 -1.4500000000000002 38.375 -1.3L42.725 -0.65Q43.275000000000006 -0.5750000000000001 43.275000000000006 -0.30000000000000004Q43.275000000000006 0.0 42.825 0.0H18.075Q17.85 0.0 17.7375 -0.1Q17.625 -0.2 17.625 -0.30000000000000004Q17.625 -0.5750000000000001 18.175 -0.65L22.525000000000002 -1.3Q23.475 -1.4500000000000002 23.925 -1.7500000000000002Q24.375 -2.0500000000000003 24.375 -2.6500000000000004V-69.15H17.325Q14.925 -69.15 12.6125 -67.75Q10.3 -66.35000000000001 7.7875000000000005 -62.575Q5.275 -58.800000000000004 2.275 -51.650000000000006Q2.1750000000000003 -51.425000000000004 2.0250000000000004 -51.325Q1.875 -51.225 1.725 -51.25Q1.5750000000000002 -51.300000000000004 1.5500000000000003 -51.487500000000004Q1.5250000000000001 -51.675000000000004 1.5750000000000002 -52.0L4.7250000000000005 -70.4Q4.8500000000000005 -71.10000000000001 4.9625 -71.25Q5.075 -71.4 5.175000000000001 -71.4Q5.375 -71.4 5.9 -71.05000000000001Q6.425000000000001 -70.7 7.2125 -70.35Q8.0 -70.0 8.925 -70.0Z"/><path d="M75.80000000000001 -73.35000000000001V-2.6500000000000004Q75.80000000000001 -2.025 76.0875 -1.65Q76.375 -1.2750000000000001 77.0 -1.1500000000000001L79.95 -0.675Q80.45 -0.6000000000000001 80.45 -0.30000000000000004Q80.45 0.0 80.05000000000001 0.0H61.00000000000001Q60.87500000000001 0.0 60.7625 -0.08750000000000001Q60.650000000000006 -0.17500000000000002 60.650000000000006 -0.30000000000000004Q60.650000000000006 -0.42500000000000004 60.800000000000004 -0.55Q60.95 -0.675 61.300000000000004 -0.7250000000000001L64.2 -1.1500000000000001Q64.85000000000001 -1.2750000000000001 65.125 -1.65Q65.4 -2.025 65.4 -2.6V-68.75Q65.4 -69.025 65.2625 -69.1875Q65.125 -69.35000000000001 64.775 -69.35000000000001H61.2Q61.00000000000001 -69.35000000000001 60.900000000000006 -69.45Q60.800000000000004 -69.55 60.800000000000004 -69.675Q60.800000000000004 -69.85000000000001 60.91250000000001 -69.92500000000001Q61.025000000000006 -70.0 61.2 -70.05L74.375 -73.72500000000001Q74.80000000000001 -73.85000000000001 74.9625 -73.875Q75.125 -73.9 75.30000000000001 -73.9Q75.55000000000001 -73.9 75.67500000000001 -73.73750000000001Q75.80000000000001 -73.575 75.80000000000001 -73.35000000000001ZM74.95 -34.425000000000004 74.5 -34.9 76.25 -36.475Q81.10000000000001 -40.85 84.60000000000001 -42.75Q88.10000000000001 -44.650000000000006 91.25 -44.650000000000006Q95.85000000000001 -44.650000000000006 98.41250000000001 -41.7Q100.97500000000001 -38.75 101.80000000000001 -32.550000000000004L105.625 -3.0Q105.72500000000001 -2.2 106.07500000000002 -1.6875Q106.42500000000001 -1.175 107.22500000000001 -1.05L109.775 -0.625Q110.025 -0.6000000000000001 110.125 -0.5125000000000001Q110.22500000000001 -0.42500000000000004 110.22500000000001 -0.30000000000000004Q110.22500000000001 -0.17500000000000002 110.125 -0.08750000000000001Q110.025 0.0 109.82500000000002 0.0H90.45Q90.0 0.0 90.0 -0.30000000000000004Q90.0 -0.55 90.55000000000001 -0.675L93.60000000000001 -1.1500000000000001Q94.45000000000002 -1.2750000000000001 94.775 -1.7875Q95.10000000000001 -2.3000000000000003 95.0 -3.0L91.55000000000001 -31.5Q90.95000000000002 -35.95 89.41250000000001 -38.0Q87.875 -40.050000000000004 84.85000000000001 -40.050000000000004Q82.85000000000001 -40.050000000000004 80.88750000000002 -39.0375Q78.92500000000001 -38.025 76.65 -35.95Z"/><path d="M148.525 -26.1Q148.525 -25.700000000000003 148.2625 -25.450000000000003Q148.0 -25.200000000000003 147.47500000000002 -25.200000000000003H116.575V-26.0H137.32500000000002Q138.125 -26.0 138.125 -26.900000000000002Q138.125 -35.5 135.6125 -39.725Q133.10000000000002 -43.95 129.375 -43.95Q126.2 -43.95 123.92500000000001 -41.900000000000006Q121.65 -39.85 120.41250000000001 -35.775000000000006Q119.17500000000001 -31.700000000000003 119.17500000000001 -25.650000000000002Q119.17500000000001 -15.350000000000001 123.53750000000001 -10.100000000000001Q127.9 -4.8500000000000005 134.9 -4.8500000000000005Q139.97500000000002 -4.8500000000000005 143.55 -7.737500000000001Q147.125 -10.625 147.675 -15.575000000000001Q147.70000000000002 -15.775 147.78750000000002 -15.850000000000001Q147.875 -15.925 147.925 -15.925Q148.05 -15.925 148.15 -15.8375Q148.25 -15.75 148.22500000000002 -15.475000000000001Q147.875 -10.75 145.375 -7.025Q142.875 -3.3000000000000003 138.825 -1.1500000000000001Q134.775 1.0 129.75 1.0Q123.72500000000001 1.0 119.17500000000001 -1.7000000000000002Q114.625 -4.4 112.075 -9.3375Q109.525 -14.275 109.525 -20.900000000000002Q109.525 -27.900000000000002 112.1375 -33.2625Q114.75 -38.625 119.5 -41.6625Q124.25 -44.7 130.625 -44.7Q136.07500000000002 -44.7 140.08750000000003 -42.2875Q144.10000000000002 -39.875 146.3125 -35.675Q148.525 -31.475 148.525 -26.1Z"/><path d="M195.33983154296877 -69.20000610351563 191.9197937011719 -68.64000244140625Q190.88979797363282 -68.47000427246094 190.34480133056644 -68.13500518798828Q189.79980468750003 -67.80000610351563 189.79980468750003 -67.20000610351563V-3.1999877929687504Q189.79980468750003 -2.0199920654296877 190.43980407714847 -1.549992370605469Q191.0798034667969 -1.0799926757812501 192.2798034667969 -1.0799926757812501H198.40000000000003Q200.8299987792969 -1.0799926757812501 203.2649856567383 -2.1299865722656253Q205.69997253417972 -3.17998046875 208.27495117187505 -5.934963989257813Q210.84992980957034 -8.689947509765625 213.59990539550785 -13.8399169921875L219.21986083984376 -24.3398681640625Q219.3598602294922 -24.609866333007815 219.49485931396487 -24.714866638183594Q219.62985839843753 -24.819866943359376 219.7798583984375 -24.7398681640625Q220.0098571777344 -24.699868774414064 220.07485656738282 -24.504869079589845Q220.13985595703127 -24.309869384765626 220.03985595703128 -23.899871826171875L215.25986328125003 0.10001220703125001Q215.10986328125003 0.840008544921875 215.0148635864258 1.0300079345703126Q214.91986389160158 1.2200073242187501 214.77986450195314 1.2200073242187501Q214.52986145019534 1.2200073242187501 213.8398635864258 0.9150054931640625Q213.14986572265627 0.6100036621093751 212.10486602783206 0.30500183105468753Q211.05986633300785 0.0 209.67985839843752 0.0H166.40000610351564Q166.13000793457033 0.0 165.9950088500977 -0.1149993896484375Q165.86000976562502 -0.229998779296875 165.86000976562502 -0.35999755859375004Q165.86000976562502 -0.6799957275390626 166.5600036621094 -0.799993896484375L169.98004150390628 -1.35999755859375Q171.05003662109377 -1.5399963378906252 171.57503356933597 -1.8699951171875002Q172.10003051757815 -2.1999938964843753 172.10003051757815 -2.7999938964843754V-67.20000610351563Q172.10003051757815 -67.80000610351563 171.57503356933597 -68.13500518798828Q171.05003662109377 -68.47000427246094 169.98004150390628 -68.64000244140625L166.5600036621094 -69.20000610351563Q165.86000976562502 -69.32000427246093 165.86000976562502 -69.64000244140625Q165.86000976562502 -69.78000183105469 165.9950088500977 -69.89000091552734Q166.13000793457033 -70.0 166.40000610351564 -70.0H195.4998291015625Q195.76982727050785 -70.0 195.90482635498051 -69.89000091552734Q196.03982543945315 -69.78000183105469 196.03982543945315 -69.64000244140625Q196.03982543945315 -69.32000427246093 195.33983154296877 -69.20000610351563Z"/><path d="M244.24995422363284 -45.33997192382813Q251.1199371337891 -45.33997192382813 256.4049255371094 -42.36997375488282Q261.68991394042973 -39.399975585937504 264.69990844726567 -34.1299789428711Q267.7099029541016 -28.859982299804688 267.7099029541016 -21.979986572265627Q267.7099029541016 -15.219989013671876 264.5999099731446 -10.044992065429689Q261.48991699218755 -4.8699951171875 256.04992980957036 -1.93499755859375Q250.60994262695317 1.0 243.54996032714848 1.0Q236.67997741699222 1.0 231.40498962402347 -1.9149978637695315Q226.13000183105473 -4.829995727539063 223.1400085449219 -10.004992675781251Q220.1500152587891 -15.179989624023438 220.1500152587891 -21.979986572265627Q220.1500152587891 -28.749984741210938 223.2650054931641 -34.01498107910156Q226.3799957275391 -39.27997741699219 231.82498168945315 -42.309974670410156Q237.2699676513672 -45.33997192382813 244.24995422363284 -45.33997192382813ZM246.90994262695315 0.08000488281250001Q249.34998168945316 -0.189996337890625 250.7750152587891 -2.8150009155273437Q252.20004882812503 -5.440005493164063 252.51507110595708 -10.495005798339845Q252.8300933837891 -15.550006103515626 251.85010070800786 -23.029995727539063Q250.8701080322266 -30.53998718261719 249.30509338378909 -35.36998443603515Q247.7400787353516 -40.199981689453125 245.67004699707036 -42.41998138427735Q243.60001525878909 -44.63998107910157 241.04997253417972 -44.32998046875Q238.57992858886723 -44.01997985839844 237.15989532470707 -41.36997375488282Q235.7398620605469 -38.71996765136719 235.494841003418 -33.69996643066406Q235.2498199462891 -28.67996520996094 236.1898132324219 -21.239978027343753Q237.16980590820316 -13.809991455078126 238.73482208251957 -8.974993896484376Q240.29983825683598 -4.139996337890625 242.37487030029303 -1.8949951171875Q244.44990234375004 0.350006103515625 246.90994262695315 0.08000488281250001Z"/><path d="M299.45984191894536 -13.329849243164062 292.1499298095704 5.74991455078125 274.3099731445313 -35.91003112792969Q272.9199798583985 -39.18001708984375 271.4199783325196 -41.16999816894531Q269.91997680664065 -43.15997924804688 268.1599700927735 -43.48997802734375Q267.5599761962891 -43.61997680664063 267.4299774169922 -43.73497619628907Q267.29997863769535 -43.8499755859375 267.29997863769535 -43.979974365234376Q267.29997863769535 -44.19997253417969 267.434977722168 -44.26997222900391Q267.5699768066407 -44.33997192382813 267.75997619628913 -44.33997192382813H292.7998260498047Q293.0398254394532 -44.33997192382813 293.1548248291016 -44.26497192382813Q293.26982421875005 -44.189971923828125 293.26982421875005 -43.959973144531254Q293.26982421875005 -43.76997375488281 293.1498245239258 -43.69497375488281Q293.0298248291016 -43.619973754882814 292.71982727050784 -43.53997497558594L289.78979492187506 -43.07997436523438Q288.56979675292973 -42.899975585937504 288.2997970581055 -41.80998229980469Q288.0297973632813 -40.71998901367188 288.849789428711 -38.80000610351563ZM290.85983276367193 7.920162963867188 294.51989746093756 -1.5499938964843751 295.2798919677735 -3.549978637695313 308.1399047851563 -37.76997680664063Q309.069906616211 -40.28997802734375 308.4899078369141 -41.36997985839844Q307.90990905761726 -42.449981689453125 306.10990905761724 -42.88997802734375L303.5298980712891 -43.52997436523438Q303.1998992919922 -43.619973754882814 303.0748992919922 -43.70997314453125Q302.9498992919922 -43.79997253417969 302.9498992919922 -43.94997253417969Q302.9498992919922 -44.179971313476564 303.0848983764649 -44.259971618652344Q303.21989746093755 -44.33997192382813 303.41989746093753 -44.33997192382813H315.6298980712891Q315.8798980712891 -44.33997192382813 315.99989776611335 -44.259971618652344Q316.1198974609375 -44.179971313476564 316.1198974609375 -43.959973144531254Q316.1198974609375 -43.809973144531256 315.99989776611335 -43.719973754882815Q315.8798980712891 -43.629974365234375 315.54989929199223 -43.53997497558594Q312.6999114990235 -42.97998046875 311.31490783691413 -41.73997955322265Q309.92990417480473 -40.499978637695314 308.9099029541016 -37.749978637695314L291.31983337402346 8.7801513671875Q289.2798522949219 14.290097045898438 287.88985900878913 17.77006378173828Q286.4998657226563 21.250030517578125 284.6298767089844 22.875015258789062Q282.75988769531256 24.5 279.11992187500005 24.5Q274.72995605468753 24.5 272.02497711181644 21.785023498535157Q269.31999816894535 19.070046997070314 269.31999816894535 15.300076293945313Q269.31999816894535 12.290109252929689 270.89998168945317 10.650125122070314Q272.479965209961 9.010140991210937 274.76994323730474 9.010140991210937Q276.79992370605476 9.010140991210937 278.1449096679688 10.280131530761718Q279.4898956298829 11.5501220703125 280.32988281250005 14.040097045898438L281.0898712158204 16.340078735351565Q281.60986328125006 17.930072021484374 282.38985900878913 19.34006042480469Q283.16985473632815 20.750048828125003 284.4398498535157 20.750048828125003Q285.38984985351567 20.750048828125003 286.28984985351565 19.17506561279297Q287.1898498535157 17.600082397460938 288.2848464965821 14.705108642578125Q289.3798431396485 11.810134887695312 290.85983276367193 7.920162963867188Z"/><path d="M340.8700225830079 -4.6399993896484375V-5.219992065429688L340.1400329589844 -4.5400024414062505V-38.899871826171875Q340.1400329589844 -41.58992614746094 338.93501586914067 -43.074952697753915Q337.7299987792969 -44.55997924804688 335.65995483398444 -44.55997924804688Q333.23991088867194 -44.55997924804688 331.96989440917974 -43.24996337890626Q330.69987792968755 -41.93994750976563 330.69987792968755 -40.05994262695313V-35.37998046875Q330.69987792968755 -32.46000671386719 328.54490203857426 -30.34003143310547Q326.389926147461 -28.22005615234375 322.9599670410157 -28.22005615234375Q320.6099914550782 -28.22005615234375 319.0850067138673 -29.590045166015628Q317.56002197265633 -30.9600341796875 317.56002197265633 -33.760009765625Q317.56002197265633 -36.440005493164065 319.8050125122071 -39.11999664306641Q322.05000305175787 -41.79998779296875 326.4949829101563 -43.57998046875Q330.9399627685548 -45.35997314453125 337.4999298095704 -45.35997314453125Q346.4098876953126 -45.35997314453125 350.82486572265634 -41.789981079101565Q355.2398437500001 -38.21998901367188 355.2398437500001 -31.580010986328126V-6.2599731445312505Q355.2398437500001 -4.7799560546875 355.8098464965821 -4.0899505615234375Q356.37984924316413 -3.3999450683593753 357.2098541259766 -3.3999450683593753Q358.01985778808603 -3.3999450683593753 358.7398574829102 -3.964944458007813Q359.4598571777344 -4.52994384765625 359.63985595703133 -5.9399353027343755Q359.67985534667974 -6.159933471679688 359.75485534667973 -6.229933166503907Q359.8298553466798 -6.299932861328125 359.9198547363282 -6.299932861328125Q360.05985412597664 -6.299932861328125 360.1248535156251 -6.229933166503907Q360.1898529052735 -6.159933471679688 360.1898529052735 -5.9399353027343755Q360.1898529052735 -4.899942016601563 359.1698623657227 -3.2699584960937504Q358.14987182617193 -1.6399749755859376 355.81489562988287 -0.34498901367187507Q353.4799194335938 0.9499969482421875 349.49996337890633 0.9499969482421875Q344.9000000000001 0.9499969482421875 342.885011291504 -0.6649993896484376Q340.8700225830079 -2.2799957275390628 340.8700225830079 -4.6399993896484375ZM314.9000305175782 -9.859991455078125Q314.9000305175782 -15.599972534179688 319.6650146484376 -18.969969177246092Q324.42999877929697 -22.3399658203125 335.23993530273447 -22.3399658203125Q337.90996093750005 -22.3399658203125 339.529981994629 -21.799961853027344Q341.1500030517579 -21.25995788574219 342.5400207519532 -20.3799560546875L342.10002441406255 -19.999957275390628Q340.6500091552735 -20.7599609375 339.244987487793 -21.109967041015626Q337.83996582031256 -21.45997314453125 336.0399414062501 -21.45997314453125Q333.06989440917977 -21.45997314453125 331.4148727416993 -19.059967041015625Q329.75985107421883 -16.6599609375 329.75985107421883 -11.979968261718751Q329.75985107421883 -7.529971313476563 331.40486907958996 -5.384962463378907Q333.04988708496103 -3.23995361328125 335.6599182128907 -3.23995361328125Q337.26994628906255 -3.23995361328125 338.8849716186524 -4.149958801269531Q340.49999694824226 -5.059963989257813 341.52001647949226 -6.599981689453125L342.14001159667976 -6.2399841308593755Q340.06000671386727 -2.7399932861328127 336.2100082397462 -0.8899978637695314Q332.3600097656251 0.95999755859375 327.9000122070313 0.95999755859375Q322.2100158691407 0.95999755859375 318.5550231933595 -2.079998779296875Q314.9000305175782 -5.1199951171875 314.9000305175782 -9.859991455078125Z"/><path d="M380.16984863281255 -74.21996459960938V-2.9799865722656254Q380.16984863281255 -2.2499908447265624 380.44984893798835 -1.8149932861328124Q380.72984924316415 -1.3799957275390626 381.3698486328126 -1.2399963378906251L383.6898742675782 -0.7799957275390625Q384.0198730468751 -0.739996337890625 384.13487243652355 -0.6249969482421875Q384.24987182617195 -0.5099975585937501 384.24987182617195 -0.35999755859375004Q384.24987182617195 -0.18999938964843752 384.13487243652355 -0.09499969482421876Q384.0198730468751 0.0 383.78987426757817 0.0H361.47000732421884Q361.30000915527353 0.0 361.16501007080086 -0.09499969482421876Q361.0300109863282 -0.18999938964843752 361.0300109863282 -0.35999755859375004Q361.0300109863282 -0.49999694824218754 361.16501159667973 -0.6249969482421875Q361.30001220703133 -0.7499969482421875 361.6500122070313 -0.7999969482421876L363.95003662109383 -1.2399963378906251Q364.6300354003907 -1.3799957275390626 364.8900360107423 -1.8149932861328124Q365.1500366210938 -2.2499908447265624 365.1500366210938 -2.9599853515625V-68.48001098632812Q365.1500366210938 -68.83000793457032 364.97503814697274 -69.01500701904297Q364.80003967285165 -69.20000610351563 364.3900421142579 -69.20000610351563H361.79000244140633Q361.5000061035157 -69.20000610351563 361.38500671386726 -69.31500549316407Q361.2700073242188 -69.4300048828125 361.2700073242188 -69.60000305175781Q361.2700073242188 -69.79000244140626 361.40500640869146 -69.8800018310547Q361.54000549316413 -69.97000122070312 361.7300048828126 -70.02000122070312L378.36986389160165 -74.6399627685547Q378.89985961914067 -74.77996215820313 379.0998580932618 -74.81996154785156Q379.2998565673829 -74.8599609375 379.54985351562505 -74.8599609375Q379.8598510742188 -74.8599609375 380.01484985351567 -74.67496185302736Q380.16984863281255 -74.48996276855469 380.16984863281255 -74.21996459960938Z"/></g>
<rect x="162.60" y="12.00" width="221.00" height="7.00" rx="1.5" fill="#00A878"/>
</g></svg>