<svg xmlns="http://www.w3.org/2000/svg" viewBox="0 0 64 64" role="img" aria-label="Ponto, o mascote do The Loyal">
  <rect width="64" height="64" rx="14" fill="#111111"/>
  <!-- orelhas -->
  <path d="M18 19 Q11 29 15 42 Q21 47 26 40 Q22 30 27 21 Z" fill="#B8813F" stroke="#111111" stroke-width="1.5" stroke-linejoin="round"/>
  <path d="M46 19 Q53 29 49 42 Q43 47 38 40 Q42 30 37 21 Z" fill="#B8813F" stroke="#111111" stroke-width="1.5" stroke-linejoin="round"/>
  <!-- coleira verde + tag TL -->
  <path d="M19 40 Q32 47 45 40 L45 44 Q32 51 19 44 Z" fill="#00C48C" stroke="#111111" stroke-width="1.5" stroke-linejoin="round"/>
  <circle cx="32" cy="47" r="4.6" fill="#111111"/>
  <text x="32" y="49" text-anchor="middle" font-size="5" font-weight="700" fill="#FAF7F0" font-family="ui-monospace, monospace">TL</text>
  <!-- cabeca -->
  <circle cx="32" cy="30" r="15" fill="#D9A15B" stroke="#111111" stroke-width="1.5"/>
  <path d="M22 22 Q27 19 31 23 Q28 27 23 27 Q21 25 22 22 Z" fill="#B8813F"/>
  <!-- focinho -->
  <ellipse cx="32" cy="35" rx="8.5" ry="6" fill="#F3E3C3"/>
  <path d="M28.5 32 Q32 30.5 35.5 32 Q35.5 35 32 36.5 Q28.5 35 28.5 32 Z" fill="#111111"/>
  <path d="M32 36.5 L32 38.5 Q34 40 36 38.5" fill="none" stroke="#111111" stroke-width="1.4" stroke-linecap="round"/>
  <!-- olhos -->
  <circle cx="26" cy="28" r="2" fill="#111111"/>
  <circle cx="38" cy="28" r="2" fill="#111111"/>
  <!-- sobrancelhas: direita levantada (ceticismo) -->
  <path d="M23 24 Q26 22.8 29 24" fill="none" stroke="#111111" stroke-width="1.4" stroke-linecap="round"/>
  <path d="M35 22.4 Q38 21 41 22.8" fill="none" stroke="#111111" stroke-width="1.4" stroke-linecap="round"/>
</svg>
